<svg width="511" height="511" viewBox="0 0 511 511" fill="none" xmlns="http://www.w3.org/2000/svg">
<path d="M317.102 448.403C287.322 457.913 255.745 460.399 224.844 455.666C193.942 450.933 164.557 439.111 138.988 421.124C113.419 403.137 92.3623 379.474 77.4664 351.99C62.5705 324.505 54.2402 293.945 53.1282 262.704C52.0161 231.462 58.1524 200.387 71.0564 171.913C83.9604 143.439 103.282 118.339 127.507 98.5798C151.732 78.8205 180.202 64.9382 210.689 58.0203C241.175 51.1025 272.85 51.337 303.23 58.7055L284.229 137.05C265.943 132.615 246.878 132.474 228.528 136.638C210.179 140.802 193.042 149.158 178.461 161.051C163.881 172.944 152.251 188.051 144.484 205.189C136.718 222.328 133.024 241.032 133.693 259.836C134.363 278.64 139.377 297.034 148.343 313.577C157.308 330.119 169.982 344.362 185.372 355.188C200.762 366.014 218.449 373.13 237.048 375.979C255.647 378.827 274.654 377.331 292.578 371.607L317.102 448.403Z" fill="#4FC3F7"/>
<path d="M217.301 56.6356C262.546 47.9445 309.403 54.9422 350.134 76.4733C390.866 98.0044 423.038 132.782 441.339 175.063C459.64 217.345 462.975 264.604 450.795 309.037C438.614 353.47 411.646 392.421 374.342 419.46L327.03 354.187C349.483 337.912 365.715 314.468 373.047 287.724C380.378 260.98 378.371 232.535 367.356 207.086C356.34 181.636 336.976 160.704 312.46 147.745C287.944 134.785 259.741 130.573 232.508 135.805L217.301 56.6356Z" fill="#FFD54F"/>
<path d="M458 255.5C458 301.572 442.289 346.268 413.461 382.207C384.633 418.146 344.411 443.18 299.436 453.176C254.461 463.172 207.422 457.533 166.084 437.189C124.747 416.846 91.5819 383.014 72.0656 341.279L145.092 307.13C156.839 332.25 176.8 352.613 201.681 364.858C226.562 377.103 254.875 380.497 281.945 374.48C309.015 368.463 333.224 353.396 350.576 331.764C367.927 310.133 377.384 283.231 377.384 255.5L458 255.5Z" fill="#E91E63"/>
</svg>
